# File created by Blade
# Date/Time:  Tue Sep 30 19:10:05 2014
#---------------------------------------------------------
:version 1.10
:name HOM
:units
  mass 1.0
  length 1.000000
  angle deg
:documentation
     Acclaim Skeleton File
:root
   axis xyz
   order TX TY TZ RX RY RZ
   position 0.000000 0.000000 0.000000
   orientation 0 0 0
:bonedata
   begin
      id 1
      name Spine_dum
      direction 0.000000 1.000000 0.000000
      length 7.508948
      axis 0.0 0.0 0.0 xyz
   end
   begin
      id 2
      name LeftUpLeg_dum
      direction 1.000000 0.000000 0.000000
      length 3.000560
      axis 0.0 0.0 0.0 xyz
   end
   begin
      id 3
      name RightUpLeg_dum
      direction -1.000000 0.000000 0.000000
      length 3.000560
      axis 0.0 0.0 0.0 xyz
   end
   begin
      id 4
      name Spine
      direction 0.000000 1.000000 0.000000
      length 0.000000
      axis 0.0 0.0 0.0 xyz
      dof rx ry rz
   end
   begin
      id 5
      name Spine_dum1
      direction 0.000000 1.000000 0.000000
      length 13.861154
      axis 0.0 0.0 0.0 xyz
   end
   begin
      id 6
      name Spine_dum2
      direction 0.000000 1.000000 0.000000
      length 8.204781
      axis 0.0 0.0 0.0 xyz
   end
   begin
      id 7
      name Spine_dum3
      direction 0.000000 1.000000 0.000000
      length 8.204781
      axis 0.0 0.0 0.0 xyz
   end
   begin
      id 8
      name Head
      direction 0.000000 1.000000 0.000000
      length 4.527550
      axis 0.0 0.0 0.0 xyz
      dof rx ry rz
   end
   begin
      id 9
      name LeftShoulder
      direction 1.000000 0.000000 0.000000
      length 6.635956
      axis 0.0 0.0 -90.0 xyz
      dof rx ry rz
   end
   begin
      id 10
      name LeftArm
      direction 1.000000 0.000000 0.000000
      length 10.274218
      axis 0.0 0.0 -90.0 xyz
      dof rx ry rz
   end
   begin
      id 11
      name LeftForeArm
      direction 1.000000 0.000000 0.000000
      length 8.522147
      axis 0.0 0.0 -90.0 xyz
      dof ry rz rx
   end
   begin
      id 12
      name LeftHand
      direction 0.000000 0.000000 0.000000
      length 0.000000
      axis 0.0 0.0 -90.0 xyz
      dof rx ry rz
   end
   begin
      id 13
      name LeftHand_dum1
      direction 0.000000 0.000000 0.000000
      length 0.000000
      axis 0.0 0.0 -90.0 xyz
   end
   begin
      id 14
      name LeftHand_dum2
      direction 1.000000 0.000000 0.000000
      length 3.937000
      axis 0.0 0.0 -90.0 xyz
   end
   begin
      id 15
      name LeftHandThumb1
      direction 0.000000 0.000000 1.000000
      length 3.937000
      axis 0.0 0.0 -90.0 xyz
      dof rx rz ry
   end
   begin
      id 16
      name RightShoulder
      direction -1.000000 0.000000 0.000000
      length 6.635956
      axis 0.0 0.0 90.0 xyz
      dof rx ry rz
   end
   begin
      id 17
      name RightArm
      direction -1.000000 0.000000 0.000000
      length 10.274218
      axis 0.0 0.0 90.0 xyz
      dof rx ry rz
   end
   begin
      id 18
      name RightForeArm
      direction -1.000000 0.000000 0.000000
      length 8.522147
      axis 0.0 0.0 90.0 xyz
      dof ry rz rx
   end
   begin
      id 19
      name RightHand
      direction 0.000000 0.000000 0.000000
      length 0.000000
      axis 0.0 0.0 90.0 xyz
      dof rx ry rz
   end
   begin
      id 20
      name RightHand_dum1
      direction 0.000000 0.000000 0.000000
      length 0.000000
      axis 0.0 0.0 90.0 xyz
   end
   begin
      id 21
      name RightHand_dum2
      direction -1.000000 0.000000 0.000000
      length 3.937000
      axis 0.0 0.0 90.0 xyz
   end
   begin
      id 22
      name RightHandThumb1
      direction 0.000000 0.000000 1.000000
      length 3.937000
      axis 0.0 0.0 90.0 xyz
      dof rx rz ry
   end
   begin
      id 23
      name LeftUpLeg
      direction 0.000000 -1.000000 0.000000
      length 16.490845
      axis 0.0 0.0 0.0 xyz
      dof rx ry rz
   end
   begin
      id 24
      name LeftLeg
      direction 0.000000 -1.000000 0.000000
      length 14.556576
      axis 0.0 0.0 0.0 xyz
      dof rx ry rz
   end
   begin
      id 25
      name LeftFoot
      direction 0.000000 -0.258819 0.965926
      length 4.831116
      axis 15.0 0.0 0.0 xyz
      dof rx ry rz
   end
   begin
      id 26
      name LeftToeBase
      direction 0.000000 0.000000 1.000000
      length 2.952750
      axis 0.0 0.0 0.0 xyz
      dof rx ry rz
   end
   begin
      id 27
      name RightUpLeg
      direction 0.000000 -1.000000 0.000000
      length 16.490845
      axis 0.0 0.0 0.0 xyz
      dof rx ry rz
   end
   begin
      id 28
      name RightLeg
      direction 0.000000 -1.000000 0.000000
      length 14.556576
      axis 0.0 0.0 0.0 xyz
      dof rx ry rz
   end
   begin
      id 29
      name RightFoot
      direction 0.000000 -0.258819 0.965926
      length 4.831116
      axis 15.0 0.0 0.0 xyz
      dof rx ry rz
   end
   begin
      id 30
      name RightToeBase
      direction 0.000000 0.000000 1.000000
      length 2.952750
      axis 0.0 0.0 0.0 xyz
      dof rx ry rz
   end
:hierarchy
   begin
      root Spine_dum LeftUpLeg_dum RightUpLeg_dum
      Spine_dum Spine
      LeftUpLeg_dum LeftUpLeg
      RightUpLeg_dum RightUpLeg
      Spine Spine_dum1 Spine_dum2 Spine_dum3
      Spine_dum1 Head
      Spine_dum2 LeftShoulder
      Spine_dum3 RightShoulder
      LeftShoulder LeftArm
      LeftArm LeftForeArm
      LeftForeArm LeftHand
      LeftHand LeftHand_dum1 LeftHand_dum2
      LeftHand_dum1 LeftHandThumb1
      RightShoulder RightArm
      RightArm RightForeArm
      RightForeArm RightHand
      RightHand RightHand_dum1 RightHand_dum2
      RightHand_dum1 RightHandThumb1
      LeftUpLeg LeftLeg
      LeftLeg LeftFoot
      LeftFoot LeftToeBase
      RightUpLeg RightLeg
      RightLeg RightFoot
      RightFoot RightToeBase
   end

# File created by Blade
# Date/Time:  Wed Sep 24 20:15:16 2014
# Frame Rate: 120.000 fps
#------------------------------------------------------
:FULLY-SPECIFIED
:DEGREES
441
root -6.487829 32.765173 -5.316109 16.636794 6.765603 -1.837274
Spine -21.333862 7.647733 1.060197
Head -5.106757 -13.472519 7.951394
LeftShoulder -5.838976 17.781299 8.825906
LeftArm 26.536567 42.683077 -68.389046
LeftForeArm 0.924592 -0.000000 22.144226
LeftHand -22.038375 -0.000000 -8.254770
LeftHandThumb1 -26.253704 0.000000 33.147579
RightShoulder -15.215684 12.087240 -12.311959
RightArm -0.144069 -65.816968 91.689094
RightForeArm 21.034783 -0.000000 88.942487
RightHand -5.230606 -0.000000 31.131238
RightHandThumb1 -24.326973 -0.000000 -32.862282
LeftUpLeg -14.909125 4.432592 5.525425
LeftLeg 0.741742 -0.000000 -0.000000
LeftFoot -10.753080 6.042778 -18.383672
LeftToeBase 9.639954 -0.000000 -0.000000
RightUpLeg -14.135029 -8.429836 0.517639
RightLeg 3.093825 -0.000000 -0.000000
RightFoot -8.726036 -4.364468 -13.425932
RightToeBase 0.384711 -0.000000 -0.000000
442
root -6.489180 32.765313 -5.315012 16.626013 6.766870 -1.831975
Spine -21.325893 7.663766 1.066566
Head -5.118175 -13.425969 7.932876
LeftShoulder -5.836773 17.810275 8.816998
LeftArm 26.473857 42.647111 -68.443135
LeftForeArm 0.901653 -0.000000 22.130459
LeftHand -22.111143 -0.000000 -8.222126
LeftHandThumb1 -26.253704 0.000000 33.147579
RightShoulder -15.236546 12.087340 -12.313232
RightArm -0.105029 -65.820348 91.644559
RightForeArm 21.004477 -0.000000 88.967569
RightHand -5.260769 -0.000000 31.119331
RightHandThumb1 -24.326973 -0.000000 -32.862282
LeftUpLeg -14.900228 4.442918 5.523952
LeftLeg 0.750336 -0.000000 -0.000000
LeftFoot -10.750638 6.007084 -18.427411
LeftToeBase 9.624123 -0.000000 -0.000000
RightUpLeg -14.116123 -8.448217 0.519681
RightLeg 3.080169 -0.000000 -0.000000
RightFoot -8.719623 -4.373299 -13.463954
RightToeBase 0.370401 -0.000000 -0.000000
443
root -6.489705 32.765193 -5.314603 16.625724 6.765606 -1.824492
Spine -21.333090 7.669377 1.075141
Head -5.123663 -13.368154 7.901948
LeftShoulder -5.845059 17.863167 8.805069
LeftArm 26.421640 42.603705 -68.488752
LeftForeArm 0.910698 -0.000000 22.134082
LeftHand -22.205064 -0.000000 -8.227582
LeftHandThumb1 -26.253704 0.000000 33.147579
RightShoulder -15.247075 12.090772 -12.323444
RightArm -0.098108 -65.823342 91.631353
RightForeArm 21.008511 -0.000000 88.985316
RightHand -5.286338 0.000000 31.088494
RightHandThumb1 -24.326973 -0.000000 -32.862282
LeftUpLeg -14.896111 4.433018 5.521299
LeftLeg 0.745233 -0.000000 -0.000000
LeftFoot -10.716303 5.996864 -18.533250
LeftToeBase 9.465028 -0.000000 -0.000000
RightUpLeg -14.112129 -8.471624 0.517512
RightLeg 3.076836 -0.000000 -0.000000
RightFoot -8.698781 -4.367183 -13.517157
RightToeBase 0.289179 -0.000000 -0.000000
444
root -6.489941 32.765418 -5.314956 16.627405 6.769550 -1.819037
Spine -21.337093 7.672266 1.089305
Head -5.135593 -13.320312 7.859818
LeftShoulder -5.846556 17.916649 8.789678
LeftArm 26.355270 42.550241 -68.537672
LeftForeArm 0.926328 -0.000000 22.173035
LeftHand -22.269482 -0.000000 -8.260792
LeftHandThumb1 -26.253704 0.000000 33.147579
RightShoulder -15.261952 12.094382 -12.331031
RightArm -0.098155 -65.829076 91.628223
RightForeArm 21.038828 0.000000 88.984051
RightHand -5.273117 0.000000 31.145081
RightHandThumb1 -24.326973 -0.000000 -32.862282
LeftUpLeg -14.898679 4.418686 5.519106
LeftLeg 0.746122 -0.000000 -0.000000
LeftFoot -10.736663 6.027622 -18.392876
LeftToeBase 9.601566 -0.000000 -0.000000
RightUpLeg -14.108891 -8.480191 0.517215
RightLeg 3.062228 -0.000000 -0.000000
RightFoot -8.713255 -4.356024 -13.459409
RightToeBase 0.365403 -0.000000 -0.000000
445
root -6.491165 32.765120 -5.315109 16.633307 6.772489 -1.819569
Spine -21.350146 7.651367 1.114917
Head -5.137105 -13.271634 7.806300
LeftShoulder -5.864898 17.947942 8.781995
LeftArm 26.219736 42.484020 -68.645677
LeftForeArm 0.983611 0.000000 22.235220
LeftHand -22.258915 -0.000000 -8.258378
LeftHandThumb1 -26.253704 0.000000 33.147579
RightShoulder -15.245297 12.080021 -12.334698
RightArm -0.073777 -65.822041 91.601524
RightForeArm 21.048711 -0.000000 88.972661
RightHand -5.289266 -0.000000 31.051295
RightHandThumb1 -24.326973 -0.000000 -32.862282
LeftUpLeg -14.902444 4.407914 5.524561
LeftLeg 0.739547 -0.000000 -0.000000
LeftFoot -10.726031 6.044237 -18.387154
LeftToeBase 9.535123 -0.000000 -0.000000
RightUpLeg -14.113274 -8.479421 0.521316
RightLeg 3.059024 -0.000000 -0.000000
RightFoot -8.715182 -4.368444 -13.471352
RightToeBase 0.359833 -0.000000 -0.000000
446
root -6.491965 32.764943 -5.315509 16.636594 6.766889 -1.814621
Spine -21.356456 7.656078 1.123225
Head -5.147044 -13.234379 7.752773
LeftShoulder -5.882695 18.022563 8.764549
LeftArm 26.205918 42.440449 -68.643875
LeftForeArm 0.983526 -0.000000 22.277670
LeftHand -22.233047 -0.000000 -8.260162
LeftHandThumb1 -26.253704 0.000000 33.147579
RightShoulder -15.248605 12.088207 -12.340216
RightArm -0.061062 -65.824082 91.575406
RightForeArm 21.065405 -0.000000 88.949005
RightHand -5.295124 -0.000000 31.058200
RightHandThumb1 -24.326973 -0.000000 -32.862282
LeftUpLeg -14.899406 4.368981 5.530842
LeftLeg 0.731559 -0.000000 -0.000000
LeftFoot -10.741008 6.077184 -18.394146
LeftToeBase 9.560658 -0.000000 -0.000000
RightUpLeg -14.113990 -8.449138 0.509097
RightLeg 3.056970 -0.000000 -0.000000
RightFoot -8.719709 -4.386792 -13.479300
RightToeBase 0.397989 -0.000000 -0.000000
447
root -6.492440 32.764218 -5.316737 16.647336 6.760432 -1.814144
Spine -21.371058 7.642632 1.145469
Head -5.157069 -13.178964 7.708177
LeftShoulder -5.907953 18.058462 8.752158
LeftArm 26.109139 42.384885 -68.719281
LeftForeArm 1.003376 0.000000 22.323659
LeftHand -22.192065 0.000000 -8.234668
LeftHandThumb1 -26.253704 0.000000 33.147579
RightShoulder -15.219109 12.092033 -12.337152
RightArm -0.152853 -65.781083 91.661281
RightForeArm 21.073219 -0.000000 88.922467
RightHand -5.278848 0.000000 31.039033
RightHandThumb1 -24.326973 -0.000000 -32.862282
LeftUpLeg -14.908534 4.352156 5.534538
LeftLeg 0.726890 -0.000000 -0.000000
LeftFoot -10.766181 6.098386 -18.428214
LeftToeBase 9.646435 -0.000000 -0.000000
RightUpLeg -14.123239 -8.410720 0.501938
RightLeg 3.050169 -0.000000 -0.000000
RightFoot -8.708465 -4.424858 -13.475425
RightToeBase 0.369688 -0.000000 -0.000000
448
root -6.493621 32.764195 -5.320989 16.682809 6.752598 -1.808310
Spine -21.406968 7.641892 1.144204
Head -5.183739 -13.139291 7.677148
LeftShoulder -5.916730 18.102434 8.753787
LeftArm 26.062624 42.349831 -68.753947
LeftForeArm 0.996198 -0.000000 22.352327
LeftHand -22.163751 -0.000000 -8.188471
LeftHandThumb1 -26.253704 0.000000 33.147579
RightShoulder -15.216090 12.058056 -12.327033
RightArm -0.104555 -65.758549 91.616759
RightForeArm 21.102643 0.000000 88.887109
RightHand -5.273400 -0.000000 31.032154
RightHandThumb1 -24.326973 -0.000000 -32.862282
LeftUpLeg -14.955773 4.343124 5.531168
LeftLeg 0.741831 -0.000000 -0.000000
LeftFoot -10.772827 6.105085 -18.456505
LeftToeBase 9.668185 -0.000000 -0.000000
RightUpLeg -14.173201 -8.377925 0.493250
RightLeg 3.069092 -0.000000 -0.000000
RightFoot -8.722817 -4.434601 -13.458600
RightToeBase 0.378786 -0.000000 -0.000000
449
root -6.494085 32.763658 -5.320714 16.682279 6.734951 -1.810093
Spine -21.409405 7.652740 1.152767
Head -5.203313 -13.112225 7.640709
LeftShoulder -5.930285 18.165534 8.745186
LeftArm 26.047736 42.306771 -68.766336
LeftForeArm 1.010631 -0.000000 22.377858
LeftHand -22.178091 0.000000 -8.210219
LeftHandThumb1 -26.253704 0.000000 33.147579
RightShoulder -15.211800 12.046886 -12.321554
RightArm -0.116422 -65.748231 91.617527
RightForeArm 21.111038 0.000000 88.852978
RightHand -5.234630 -0.000000 31.009073
RightHandThumb1 -24.326973 -0.000000 -32.862282
LeftUpLeg -14.946395 4.343726 5.534426
LeftLeg 0.731633 -0.000000 -0.000000
LeftFoot -10.747950 6.107756 -18.546173
LeftToeBase 9.493039 -0.000000 -0.000000
RightUpLeg -14.172061 -8.339435 0.484532
RightLeg 3.067014 -0.000000 -0.000000
RightFoot -8.701499 -4.462327 -13.486296
RightToeBase 0.335835 -0.000000 -0.000000
450
root -6.495624 32.763496 -5.321663 16.688274 6.721584 -1.810890
Spine -21.413386 7.665363 1.153519
Head -5.232590 -13.114016 7.616230
LeftShoulder -5.934622 18.182060 8.742629
LeftArm 26.015408 42.310717 -68.769339
LeftForeArm 0.983163 -0.000000 22.390004
LeftHand -22.170810 -0.000000 -8.199987
LeftHandThumb1 -26.253704 0.000000 33.147579
RightShoulder -15.212505 12.020827 -12.305941
RightArm -0.090153 -65.728695 91.584590
RightForeArm 21.122189 -0.000000 88.826774
RightHand -5.218524 -0.000000 30.986517
RightHandThumb1 -24.326973 -0.000000 -32.862282
LeftUpLeg -14.951113 4.333268 5.537195
LeftLeg 0.733269 -0.000000 -0.000000
LeftFoot -10.774193 6.150489 -18.426516
LeftToeBase 9.562298 -0.000000 -0.000000
RightUpLeg -14.180474 -8.315921 0.482928
RightLeg 3.065799 -0.000000 -0.000000
RightFoot -8.714136 -4.462987 -13.448062
RightToeBase 0.385582 -0.000000 -0.000000
